<svg xmlns="http://www.w3.org/2000/svg" xmlns:xlink="http://www.w3.org/1999/xlink" width="120" zoomAndPan="magnify" viewBox="0 0 90 38.999999" height="52" preserveAspectRatio="xMidYMid meet" version="1.0"><defs><g/><clipPath id="4810109e2a"><path d="M 1 0.398438 L 6 0.398438 L 6 23 L 1 23 Z M 1 0.398438 " clip-rule="nonzero"/></clipPath><clipPath id="7e87f0924d"><path d="M 35 0.398438 L 41 0.398438 L 41 23 L 35 23 Z M 35 0.398438 " clip-rule="nonzero"/></clipPath><clipPath id="f3b2b30618"><path d="M 39 0.398438 L 57 0.398438 L 57 23 L 39 23 Z M 39 0.398438 " clip-rule="nonzero"/></clipPath><clipPath id="36f8edaf0e"><rect x="0" width="88" y="0" height="29"/></clipPath></defs><g transform="matrix(1, 0, 0, 1, 1, 8)"><g clip-path="url(#36f8edaf0e)"><g clip-path="url(#4810109e2a)"><g fill="#1b1b1b" fill-opacity="1"><g transform="translate(1.165298, 22.213071)"><g><path d="M 1.046875 -17.234375 C 0.640625 -17.492188 0.34375 -17.851562 0.15625 -18.3125 C -0.0195312 -18.78125 -0.0234375 -19.285156 0.140625 -19.828125 C 0.453125 -20.910156 1.179688 -21.46875 2.328125 -21.5 L 2.375 -21.5 C 2.945312 -21.5 3.421875 -21.347656 3.796875 -21.046875 C 4.179688 -20.753906 4.4375 -20.34375 4.5625 -19.8125 C 4.726562 -19.15625 4.664062 -18.550781 4.375 -18 C 4.082031 -17.457031 3.59375 -17.101562 2.90625 -16.9375 C 2.550781 -16.863281 2.210938 -16.851562 1.890625 -16.90625 C 1.578125 -16.957031 1.296875 -17.066406 1.046875 -17.234375 Z M 0.65625 -14.5 C 0.914062 -14.664062 1.28125 -14.738281 1.75 -14.71875 C 2.019531 -14.71875 2.316406 -14.726562 2.640625 -14.75 C 2.972656 -14.769531 3.28125 -14.738281 3.5625 -14.65625 C 3.851562 -14.570312 4.039062 -14.382812 4.125 -14.09375 C 4.289062 -13.632812 4.347656 -13.082031 4.296875 -12.4375 C 4.242188 -11.789062 4.21875 -11.226562 4.21875 -10.75 C 4.226562 -9.632812 4.234375 -8.53125 4.234375 -7.4375 C 4.234375 -6.34375 4.242188 -5.238281 4.265625 -4.125 C 4.265625 -3.945312 4.285156 -3.644531 4.328125 -3.21875 C 4.378906 -2.789062 4.410156 -2.328125 4.421875 -1.828125 C 4.429688 -1.335938 4.378906 -0.921875 4.265625 -0.578125 C 4.160156 -0.234375 3.941406 -0.0507812 3.609375 -0.03125 C 3.191406 -0.0078125 2.753906 0.00390625 2.296875 0.015625 C 1.835938 0.0234375 1.398438 0 0.984375 -0.0625 C 0.691406 -0.09375 0.488281 -0.25 0.375 -0.53125 C 0.269531 -0.8125 0.210938 -1.148438 0.203125 -1.546875 C 0.191406 -1.953125 0.203125 -2.335938 0.234375 -2.703125 C 0.273438 -3.066406 0.296875 -3.351562 0.296875 -3.5625 C 0.285156 -4.300781 0.273438 -5.050781 0.265625 -5.8125 C 0.253906 -6.570312 0.25 -7.328125 0.25 -8.078125 C 0.226562 -8.710938 0.21875 -9.347656 0.21875 -9.984375 C 0.21875 -10.617188 0.207031 -11.25 0.1875 -11.875 C 0.1875 -12.40625 0.175781 -12.914062 0.15625 -13.40625 C 0.144531 -13.894531 0.3125 -14.257812 0.65625 -14.5 Z M 0.65625 -14.5 "/></g></g></g></g><g fill="#1b1b1b" fill-opacity="1"><g transform="translate(5.898813, 22.213071)"><g><path d="M 13.984375 -0.140625 C 13.503906 -0.160156 13.019531 -0.164062 12.53125 -0.15625 C 12.050781 -0.144531 11.566406 -0.140625 11.078125 -0.140625 C 10.972656 -0.140625 10.882812 -0.328125 10.8125 -0.703125 C 10.75 -1.085938 10.707031 -1.585938 10.6875 -2.203125 C 10.675781 -2.828125 10.671875 -3.5 10.671875 -4.21875 C 10.671875 -4.945312 10.675781 -5.644531 10.6875 -6.3125 C 10.707031 -6.988281 10.722656 -7.570312 10.734375 -8.0625 C 10.742188 -8.5625 10.75 -8.882812 10.75 -9.03125 C 10.726562 -10.050781 10.566406 -10.820312 10.265625 -11.34375 C 9.972656 -11.875 9.601562 -12.238281 9.15625 -12.4375 C 8.707031 -12.644531 8.265625 -12.75 7.828125 -12.75 L 7.765625 -12.75 C 6.722656 -12.75 5.878906 -12.394531 5.234375 -11.6875 C 4.585938 -10.988281 4.25 -10.078125 4.21875 -8.953125 C 4.195312 -8.222656 4.1875 -7.488281 4.1875 -6.75 C 4.1875 -6.019531 4.1875 -5.289062 4.1875 -4.5625 C 4.207031 -4 4.253906 -3.375 4.328125 -2.6875 C 4.410156 -2.007812 4.398438 -1.390625 4.296875 -0.828125 C 4.222656 -0.398438 4.050781 -0.171875 3.78125 -0.140625 C 3.519531 -0.117188 3.226562 -0.0976562 2.90625 -0.078125 C 2.6875 -0.0664062 2.394531 -0.046875 2.03125 -0.015625 C 1.675781 0.015625 1.332031 0.00390625 1 -0.046875 C 0.664062 -0.109375 0.414062 -0.25 0.25 -0.46875 C 0.0390625 -0.757812 -0.0351562 -1.109375 0.015625 -1.515625 C 0.078125 -1.929688 0.117188 -2.289062 0.140625 -2.59375 C 0.210938 -3.601562 0.265625 -4.625 0.296875 -5.65625 C 0.359375 -7.632812 0.304688 -9.597656 0.140625 -11.546875 C 0.0976562 -11.929688 0.0664062 -12.378906 0.046875 -12.890625 C 0.0351562 -13.398438 0.078125 -13.882812 0.171875 -14.34375 C 0.273438 -14.8125 0.476562 -15.175781 0.78125 -15.4375 C 1.082031 -15.707031 1.535156 -15.785156 2.140625 -15.671875 C 2.628906 -15.585938 3.109375 -15.472656 3.578125 -15.328125 C 4.054688 -15.191406 4.539062 -15.082031 5.03125 -15 C 5.070312 -15 5.113281 -15 5.15625 -15 C 5.195312 -15 5.226562 -15 5.25 -15 C 5.59375 -15 5.9375 -15.066406 6.28125 -15.203125 C 6.632812 -15.335938 6.992188 -15.476562 7.359375 -15.625 C 7.722656 -15.769531 8.085938 -15.851562 8.453125 -15.875 C 9.515625 -15.957031 10.519531 -15.773438 11.46875 -15.328125 C 12.28125 -14.941406 12.910156 -14.4375 13.359375 -13.8125 C 13.804688 -13.195312 14.128906 -12.515625 14.328125 -11.765625 C 14.535156 -11.015625 14.664062 -10.238281 14.71875 -9.4375 C 14.769531 -8.632812 14.816406 -7.84375 14.859375 -7.0625 C 14.859375 -6.894531 14.875 -6.554688 14.90625 -6.046875 C 14.945312 -5.535156 14.972656 -4.945312 14.984375 -4.28125 C 14.992188 -3.613281 14.976562 -2.960938 14.9375 -2.328125 C 14.90625 -1.703125 14.816406 -1.179688 14.671875 -0.765625 C 14.535156 -0.347656 14.332031 -0.140625 14.0625 -0.140625 C 14.039062 -0.140625 14.023438 -0.140625 14.015625 -0.140625 C 14.015625 -0.140625 14.003906 -0.140625 13.984375 -0.140625 Z M 13.984375 -0.140625 "/></g></g></g><g fill="#1b1b1b" fill-opacity="1"><g transform="translate(20.948396, 22.213071)"><g><path d="M 13.765625 -14.125 C 14.109375 -13.738281 14.21875 -13.328125 14.09375 -12.890625 C 14.039062 -12.679688 13.941406 -12.488281 13.796875 -12.3125 C 13.660156 -12.144531 13.519531 -11.976562 13.375 -11.8125 C 13.28125 -11.726562 13.1875 -11.640625 13.09375 -11.546875 C 13.007812 -11.453125 12.921875 -11.359375 12.828125 -11.265625 C 12.679688 -11.109375 12.484375 -11.054688 12.234375 -11.109375 C 11.992188 -11.160156 11.75 -11.25 11.5 -11.375 C 11.257812 -11.507812 11.046875 -11.601562 10.859375 -11.65625 C 10.460938 -11.800781 10.066406 -11.925781 9.671875 -12.03125 C 9.273438 -12.144531 8.867188 -12.226562 8.453125 -12.28125 C 8.359375 -12.300781 8.269531 -12.3125 8.1875 -12.3125 C 8.113281 -12.3125 8.03125 -12.3125 7.9375 -12.3125 C 7.039062 -12.3125 6.238281 -12.039062 5.53125 -11.5 C 4.832031 -10.96875 4.359375 -10.253906 4.109375 -9.359375 C 3.828125 -8.390625 3.847656 -7.4375 4.171875 -6.5 C 4.503906 -5.570312 5.070312 -4.828125 5.875 -4.265625 C 6.5 -3.847656 7.304688 -3.640625 8.296875 -3.640625 C 9.546875 -3.640625 10.554688 -3.941406 11.328125 -4.546875 C 11.691406 -4.835938 11.992188 -5.019531 12.234375 -5.09375 C 12.484375 -5.175781 12.78125 -5.007812 13.125 -4.59375 C 13.3125 -4.414062 13.488281 -4.21875 13.65625 -4 C 13.832031 -3.789062 14.003906 -3.578125 14.171875 -3.359375 C 14.390625 -3.066406 14.425781 -2.785156 14.28125 -2.515625 C 14.132812 -2.242188 13.882812 -1.988281 13.53125 -1.75 C 13.1875 -1.507812 12.828125 -1.300781 12.453125 -1.125 C 12.085938 -0.957031 11.800781 -0.828125 11.59375 -0.734375 C 10.488281 -0.203125 9.320312 0.0625 8.09375 0.0625 C 6.894531 0.0625 5.75 -0.195312 4.65625 -0.71875 C 3.5625 -1.238281 2.582031 -1.972656 1.71875 -2.921875 C 0.988281 -3.785156 0.503906 -4.671875 0.265625 -5.578125 C 0.0351562 -6.492188 -0.0351562 -7.390625 0.046875 -8.265625 C 0.128906 -9.140625 0.28125 -9.929688 0.5 -10.640625 C 0.96875 -12.097656 1.734375 -13.265625 2.796875 -14.140625 C 3.867188 -15.015625 5.195312 -15.554688 6.78125 -15.765625 C 7.3125 -15.816406 7.804688 -15.84375 8.265625 -15.84375 C 8.515625 -15.84375 8.882812 -15.8125 9.375 -15.75 C 9.875 -15.6875 10.40625 -15.582031 10.96875 -15.4375 C 11.53125 -15.300781 12.066406 -15.125 12.578125 -14.90625 C 13.085938 -14.6875 13.484375 -14.425781 13.765625 -14.125 Z M 13.765625 -14.125 "/></g></g></g><g clip-path="url(#7e87f0924d)"><g fill="#1b1b1b" fill-opacity="1"><g transform="translate(35.368616, 22.213071)"><g><path d="M 1.046875 -17.234375 C 0.640625 -17.492188 0.34375 -17.851562 0.15625 -18.3125 C -0.0195312 -18.78125 -0.0234375 -19.285156 0.140625 -19.828125 C 0.453125 -20.910156 1.179688 -21.46875 2.328125 -21.5 L 2.375 -21.5 C 2.945312 -21.5 3.421875 -21.347656 3.796875 -21.046875 C 4.179688 -20.753906 4.4375 -20.34375 4.5625 -19.8125 C 4.726562 -19.15625 4.664062 -18.550781 4.375 -18 C 4.082031 -17.457031 3.59375 -17.101562 2.90625 -16.9375 C 2.550781 -16.863281 2.210938 -16.851562 1.890625 -16.90625 C 1.578125 -16.957031 1.296875 -17.066406 1.046875 -17.234375 Z M 0.65625 -14.5 C 0.914062 -14.664062 1.28125 -14.738281 1.75 -14.71875 C 2.019531 -14.71875 2.316406 -14.726562 2.640625 -14.75 C 2.972656 -14.769531 3.28125 -14.738281 3.5625 -14.65625 C 3.851562 -14.570312 4.039062 -14.382812 4.125 -14.09375 C 4.289062 -13.632812 4.347656 -13.082031 4.296875 -12.4375 C 4.242188 -11.789062 4.21875 -11.226562 4.21875 -10.75 C 4.226562 -9.632812 4.234375 -8.53125 4.234375 -7.4375 C 4.234375 -6.34375 4.242188 -5.238281 4.265625 -4.125 C 4.265625 -3.945312 4.285156 -3.644531 4.328125 -3.21875 C 4.378906 -2.789062 4.410156 -2.328125 4.421875 -1.828125 C 4.429688 -1.335938 4.378906 -0.921875 4.265625 -0.578125 C 4.160156 -0.234375 3.941406 -0.0507812 3.609375 -0.03125 C 3.191406 -0.0078125 2.753906 0.00390625 2.296875 0.015625 C 1.835938 0.0234375 1.398438 0 0.984375 -0.0625 C 0.691406 -0.09375 0.488281 -0.25 0.375 -0.53125 C 0.269531 -0.8125 0.210938 -1.148438 0.203125 -1.546875 C 0.191406 -1.953125 0.203125 -2.335938 0.234375 -2.703125 C 0.273438 -3.066406 0.296875 -3.351562 0.296875 -3.5625 C 0.285156 -4.300781 0.273438 -5.050781 0.265625 -5.8125 C 0.253906 -6.570312 0.25 -7.328125 0.25 -8.078125 C 0.226562 -8.710938 0.21875 -9.347656 0.21875 -9.984375 C 0.21875 -10.617188 0.207031 -11.25 0.1875 -11.875 C 0.1875 -12.40625 0.175781 -12.914062 0.15625 -13.40625 C 0.144531 -13.894531 0.3125 -14.257812 0.65625 -14.5 Z M 0.65625 -14.5 "/></g></g></g></g><g clip-path="url(#f3b2b30618)"><g fill="#1b1b1b" fill-opacity="1"><g transform="translate(40.102131, 22.213071)"><g><path d="M 1.125 -3.78125 C 0.539062 -4.832031 0.1875 -5.90625 0.0625 -7 C -0.0507812 -8.09375 0.0234375 -9.144531 0.296875 -10.15625 C 0.578125 -11.175781 0.992188 -12.085938 1.546875 -12.890625 C 2.097656 -13.691406 2.75 -14.320312 3.5 -14.78125 C 4.519531 -15.394531 5.660156 -15.703125 6.921875 -15.703125 C 7.179688 -15.703125 7.503906 -15.644531 7.890625 -15.53125 C 8.285156 -15.425781 8.695312 -15.3125 9.125 -15.1875 C 9.550781 -15.070312 9.957031 -15.003906 10.34375 -14.984375 C 10.738281 -14.972656 11.070312 -15.046875 11.34375 -15.203125 C 11.625 -15.367188 11.800781 -15.679688 11.875 -16.140625 C 11.96875 -16.796875 11.984375 -17.503906 11.921875 -18.265625 C 11.867188 -19.035156 11.828125 -19.757812 11.796875 -20.4375 C 11.773438 -20.894531 11.863281 -21.1875 12.0625 -21.3125 C 12.257812 -21.4375 12.523438 -21.488281 12.859375 -21.46875 C 13.203125 -21.457031 13.550781 -21.441406 13.90625 -21.421875 C 14.226562 -21.421875 14.535156 -21.441406 14.828125 -21.484375 C 15.117188 -21.535156 15.351562 -21.515625 15.53125 -21.421875 C 15.71875 -21.328125 15.8125 -21.054688 15.8125 -20.609375 C 15.8125 -18.921875 15.8125 -17.238281 15.8125 -15.5625 C 15.8125 -13.882812 15.8125 -12.207031 15.8125 -10.53125 C 15.789062 -8.976562 15.828125 -7.421875 15.921875 -5.859375 C 16.015625 -4.304688 15.988281 -2.753906 15.84375 -1.203125 C 15.800781 -0.804688 15.671875 -0.546875 15.453125 -0.421875 C 15.234375 -0.304688 14.96875 -0.269531 14.65625 -0.3125 C 14.351562 -0.363281 14.035156 -0.441406 13.703125 -0.546875 C 13.378906 -0.660156 13.078125 -0.734375 12.796875 -0.765625 C 12.128906 -0.859375 11.503906 -0.867188 10.921875 -0.796875 C 10.335938 -0.722656 9.722656 -0.554688 9.078125 -0.296875 C 8.054688 0.0859375 7 0.148438 5.90625 -0.109375 C 4.90625 -0.328125 3.972656 -0.769531 3.109375 -1.4375 C 2.253906 -2.101562 1.59375 -2.882812 1.125 -3.78125 Z M 8.046875 -12.53125 C 7.347656 -12.53125 6.691406 -12.304688 6.078125 -11.859375 C 5.472656 -11.410156 4.976562 -10.832031 4.59375 -10.125 C 4.207031 -9.414062 4.015625 -8.660156 4.015625 -7.859375 C 4.015625 -7.085938 4.203125 -6.359375 4.578125 -5.671875 C 4.953125 -4.992188 5.445312 -4.4375 6.0625 -4 C 6.675781 -3.570312 7.328125 -3.351562 8.015625 -3.34375 L 8.125 -3.34375 C 9.050781 -3.34375 9.851562 -3.675781 10.53125 -4.34375 C 11.382812 -5.238281 11.8125 -6.414062 11.8125 -7.875 C 11.8125 -9.226562 11.460938 -10.335938 10.765625 -11.203125 C 10.078125 -12.066406 9.1875 -12.507812 8.09375 -12.53125 Z M 8.046875 -12.53125 "/></g></g></g></g><g fill="#1b1b1b" fill-opacity="1"><g transform="translate(56.1368, 22.213071)"><g><path d="M 15.34375 -6.953125 C 15.125 -6.765625 14.800781 -6.640625 14.375 -6.578125 C 13.945312 -6.515625 13.488281 -6.484375 13 -6.484375 C 12.519531 -6.484375 12.070312 -6.488281 11.65625 -6.5 C 11.238281 -6.519531 10.921875 -6.53125 10.703125 -6.53125 C 9.753906 -6.519531 8.8125 -6.507812 7.875 -6.5 C 6.945312 -6.488281 6.007812 -6.484375 5.0625 -6.484375 C 4.769531 -6.484375 4.582031 -6.390625 4.5 -6.203125 C 4.414062 -6.023438 4.40625 -5.820312 4.46875 -5.59375 C 4.53125 -5.363281 4.617188 -5.164062 4.734375 -5 C 5.117188 -4.507812 5.597656 -4.113281 6.171875 -3.8125 C 6.742188 -3.507812 7.34375 -3.320312 7.96875 -3.25 C 8.65625 -3.175781 9.226562 -3.269531 9.6875 -3.53125 C 10.15625 -3.800781 10.679688 -4.082031 11.265625 -4.375 C 11.546875 -4.519531 11.734375 -4.609375 11.828125 -4.640625 C 11.929688 -4.679688 12.101562 -4.601562 12.34375 -4.40625 C 12.59375 -4.207031 12.832031 -3.929688 13.0625 -3.578125 C 13.289062 -3.234375 13.515625 -2.9375 13.734375 -2.6875 C 13.972656 -2.375 13.960938 -2.078125 13.703125 -1.796875 C 13.453125 -1.523438 13.0625 -1.273438 12.53125 -1.046875 C 12 -0.828125 11.421875 -0.632812 10.796875 -0.46875 C 10.179688 -0.300781 9.625 -0.171875 9.125 -0.078125 C 8.625 0.015625 8.28125 0.0625 8.09375 0.0625 C 6.875 0.0625 5.75 -0.175781 4.71875 -0.65625 C 3.6875 -1.144531 2.804688 -1.804688 2.078125 -2.640625 C 1.347656 -3.472656 0.800781 -4.40625 0.4375 -5.4375 C 0.0703125 -6.476562 -0.0664062 -7.566406 0.015625 -8.703125 C 0.0976562 -9.847656 0.445312 -10.957031 1.0625 -12.03125 C 1.539062 -12.875 2.175781 -13.585938 2.96875 -14.171875 C 3.757812 -14.753906 4.632812 -15.1875 5.59375 -15.46875 C 6.550781 -15.75 7.53125 -15.875 8.53125 -15.84375 C 9.539062 -15.820312 10.492188 -15.625 11.390625 -15.25 C 12.296875 -14.875 13.085938 -14.3125 13.765625 -13.5625 C 14.078125 -13.21875 14.375 -12.785156 14.65625 -12.265625 C 14.9375 -11.742188 15.175781 -11.179688 15.375 -10.578125 C 15.570312 -9.984375 15.691406 -9.398438 15.734375 -8.828125 C 15.785156 -8.253906 15.726562 -7.726562 15.5625 -7.25 C 15.53125 -7.144531 15.457031 -7.046875 15.34375 -6.953125 Z M 11.21875 -9.796875 C 11.269531 -9.921875 11.285156 -10.054688 11.265625 -10.203125 C 11.253906 -10.421875 11.15625 -10.628906 10.96875 -10.828125 C 10.476562 -11.523438 9.835938 -12.035156 9.046875 -12.359375 C 8.265625 -12.691406 7.460938 -12.675781 6.640625 -12.3125 C 6.273438 -12.144531 5.929688 -11.929688 5.609375 -11.671875 C 5.296875 -11.421875 5.003906 -11.148438 4.734375 -10.859375 C 4.660156 -10.785156 4.585938 -10.703125 4.515625 -10.609375 C 4.441406 -10.523438 4.382812 -10.425781 4.34375 -10.3125 C 4.269531 -10.09375 4.304688 -9.890625 4.453125 -9.703125 C 4.597656 -9.523438 4.78125 -9.4375 5 -9.4375 L 10.59375 -9.4375 C 10.894531 -9.4375 11.101562 -9.554688 11.21875 -9.796875 Z M 11.21875 -9.796875 "/></g></g></g><g fill="#1b1b1b" fill-opacity="1"><g transform="translate(71.95256, 22.213071)"><g><path d="M 8.3125 -3.3125 C 8.238281 -3.457031 8.148438 -3.570312 8.046875 -3.65625 C 7.953125 -3.75 7.820312 -3.796875 7.65625 -3.796875 C 7.476562 -3.796875 7.316406 -3.722656 7.171875 -3.578125 C 6.742188 -3.160156 6.347656 -2.742188 5.984375 -2.328125 C 5.535156 -1.816406 5.023438 -1.347656 4.453125 -0.921875 C 3.890625 -0.503906 3.28125 -0.210938 2.625 -0.046875 C 1.96875 0.109375 1.265625 0.0625 0.515625 -0.1875 C 0.128906 -0.332031 -0.0390625 -0.515625 0 -0.734375 C 0.0390625 -0.953125 0.148438 -1.242188 0.328125 -1.609375 C 0.671875 -2.265625 1.101562 -2.859375 1.625 -3.390625 C 2.144531 -3.921875 2.613281 -4.488281 3.03125 -5.09375 C 3.363281 -5.539062 3.664062 -6.003906 3.9375 -6.484375 C 4.207031 -6.960938 4.367188 -7.457031 4.421875 -7.96875 C 4.484375 -8.476562 4.34375 -8.992188 4 -9.515625 C 3.6875 -10.015625 3.347656 -10.484375 2.984375 -10.921875 C 2.617188 -11.359375 2.253906 -11.800781 1.890625 -12.25 C 1.742188 -12.457031 1.519531 -12.742188 1.21875 -13.109375 C 0.914062 -13.472656 0.644531 -13.847656 0.40625 -14.234375 C 0.175781 -14.628906 0.078125 -14.957031 0.109375 -15.21875 C 0.160156 -15.445312 0.351562 -15.609375 0.6875 -15.703125 C 1.03125 -15.796875 1.40625 -15.847656 1.8125 -15.859375 C 2.226562 -15.867188 2.546875 -15.863281 2.765625 -15.84375 C 3.234375 -15.820312 3.6875 -15.722656 4.125 -15.546875 C 4.5625 -15.378906 4.921875 -15.085938 5.203125 -14.671875 C 5.273438 -14.597656 5.335938 -14.523438 5.390625 -14.453125 C 5.441406 -14.378906 5.488281 -14.304688 5.53125 -14.234375 C 5.675781 -14.046875 5.820312 -13.847656 5.96875 -13.640625 C 6.113281 -13.429688 6.25 -13.21875 6.375 -13 C 6.5 -12.78125 6.625 -12.578125 6.75 -12.390625 C 6.882812 -12.191406 7.050781 -12.09375 7.25 -12.09375 C 7.269531 -12.09375 7.285156 -12.09375 7.296875 -12.09375 C 7.304688 -12.09375 7.316406 -12.09375 7.328125 -12.09375 C 7.535156 -12.09375 7.703125 -12.15625 7.828125 -12.28125 C 8.023438 -12.476562 8.207031 -12.675781 8.375 -12.875 C 8.539062 -13.082031 8.710938 -13.285156 8.890625 -13.484375 C 9.253906 -13.910156 9.601562 -14.304688 9.9375 -14.671875 C 10.28125 -15.046875 10.648438 -15.316406 11.046875 -15.484375 C 11.410156 -15.628906 11.789062 -15.71875 12.1875 -15.75 C 12.59375 -15.789062 12.988281 -15.800781 13.375 -15.78125 C 13.632812 -15.78125 13.90625 -15.757812 14.1875 -15.71875 C 14.46875 -15.675781 14.671875 -15.578125 14.796875 -15.421875 C 14.929688 -15.265625 14.878906 -15.015625 14.640625 -14.671875 C 14.109375 -13.859375 13.519531 -13.085938 12.875 -12.359375 C 12.226562 -11.628906 11.664062 -10.847656 11.1875 -10.015625 C 10.675781 -9.117188 10.503906 -8.265625 10.671875 -7.453125 C 10.847656 -6.640625 11.273438 -5.851562 11.953125 -5.09375 C 12.265625 -4.738281 12.648438 -4.316406 13.109375 -3.828125 C 13.566406 -3.335938 13.976562 -2.820312 14.34375 -2.28125 C 14.707031 -1.75 14.894531 -1.234375 14.90625 -0.734375 C 14.925781 -0.460938 14.804688 -0.289062 14.546875 -0.21875 C 14.296875 -0.144531 14 -0.117188 13.65625 -0.140625 C 13.320312 -0.160156 13.035156 -0.171875 12.796875 -0.171875 C 11.890625 -0.171875 11.050781 -0.367188 10.28125 -0.765625 C 9.519531 -1.171875 8.957031 -1.816406 8.59375 -2.703125 C 8.550781 -2.796875 8.507812 -2.894531 8.46875 -3 C 8.425781 -3.113281 8.375 -3.21875 8.3125 -3.3125 Z M 8.3125 -3.3125 "/></g></g></g></g></g></svg>